<svg version="1.1" id="Layer_1" xmlns="http://www.w3.org/2000/svg" xmlns:xlink="http://www.w3.org/1999/xlink" x="0px" y="0px"
	 width="100%" viewBox="0 0 225 225" enable-background="new 0 0 225 225" xml:space="preserve">
<path fill="#FFFFFF" opacity="1.000000" stroke="none" 
	d="
M148.000000,226.000000 
	C98.666672,226.000000 49.833340,226.000000 1.000006,226.000000 
	C1.000004,151.000000 1.000004,76.000015 1.000002,1.000017 
	C75.999992,1.000011 150.999985,1.000011 225.999969,1.000005 
	C225.999985,75.999985 225.999985,150.999969 226.000000,225.999969 
	C200.166672,226.000000 174.333328,226.000000 148.000000,226.000000 
M63.468887,53.287697 
	C55.109287,54.454250 46.467739,54.657089 38.452881,57.001972 
	C24.720436,61.019627 19.116245,70.796738 20.982264,84.900558 
	C22.134367,93.608414 27.513187,99.508598 34.997578,103.107979 
	C44.701145,107.774590 54.827011,111.555557 64.686668,115.908966 
	C68.451591,117.571312 72.365913,119.284340 75.533478,121.821556 
	C80.594009,125.875053 79.766006,132.447937 73.927834,135.281189 
	C70.874664,136.762878 67.305618,137.601044 63.901943,137.868103 
	C49.417019,139.004532 35.271347,136.742584 21.077841,132.685242 
	C21.787210,137.845673 22.244627,142.800476 23.278534,147.631943 
	C23.562321,148.958084 25.424240,150.637634 26.813337,150.920471 
	C34.130039,152.410110 41.485706,153.975998 48.905865,154.629272 
	C61.052193,155.698608 73.213417,155.481506 84.847870,151.034119 
	C93.016701,147.911499 99.192749,142.713638 101.580544,133.902451 
	C105.209572,120.510956 99.563347,109.193451 85.191345,102.512329 
	C77.234200,98.813301 68.761063,96.240120 60.639542,92.872429 
	C56.224720,91.041763 51.612701,89.190651 47.880608,86.320312 
	C41.535473,81.440269 43.121147,74.523590 50.730877,71.979675 
	C52.138832,71.509018 53.622322,71.211945 55.094528,70.994049 
	C67.818604,69.110764 80.323311,70.214821 92.524406,74.184044 
	C95.906487,75.284286 97.146408,74.528206 97.054893,71.019218 
	C96.946739,66.871529 97.029503,62.718857 97.029503,57.235073 
	C86.079819,55.910202 75.247437,54.599522 63.468887,53.287697 
M171.971817,92.499779 
	C154.668106,91.788315 137.364395,91.076843 120.060677,90.365379 
	C120.045311,90.778259 120.029953,91.191147 120.014595,91.604027 
	C124.269775,92.074585 128.548401,92.393143 132.775589,93.045158 
	C143.956635,94.769753 155.041565,96.926262 165.081284,102.526985 
	C175.220520,108.183228 177.001144,116.040138 169.791000,125.108040 
	C167.261505,128.289246 163.850967,130.926453 160.448685,133.230072 
	C145.558304,143.312057 129.029587,150.085831 111.766479,154.435394 
	C89.621353,160.014999 67.191299,164.519684 44.778904,168.956604 
	C35.065063,170.879608 25.088799,171.477005 13.977744,172.829117 
	C16.914276,173.330872 18.671534,173.913147 20.418386,173.883453 
	C31.050791,173.702789 41.683495,173.460205 52.311115,173.093719 
	C76.402618,172.262955 100.197472,168.938492 123.744064,163.942535 
	C149.622726,158.451767 175.229111,151.852097 198.608627,139.010498 
	C205.490524,135.230515 211.910522,130.177109 217.555038,124.691536 
	C223.921432,118.504395 223.133606,110.667130 216.756516,105.578163 
	C214.952637,104.138672 212.899277,102.953148 210.826813,101.918594 
	C198.880219,95.954895 186.000244,93.785461 171.971817,92.499779 
z"/>
<path fill="#1D5D8F" opacity="1.000000" stroke="none" 
	d="
M63.941967,53.288269 
	C75.247437,54.599522 86.079819,55.910202 97.029503,57.235073 
	C97.029503,62.718857 96.946739,66.871529 97.054893,71.019218 
	C97.146408,74.528206 95.906487,75.284286 92.524406,74.184044 
	C80.323311,70.214821 67.818604,69.110764 55.094528,70.994049 
	C53.622322,71.211945 52.138832,71.509018 50.730877,71.979675 
	C43.121147,74.523590 41.535473,81.440269 47.880608,86.320312 
	C51.612701,89.190651 56.224720,91.041763 60.639542,92.872429 
	C68.761063,96.240120 77.234200,98.813301 85.191345,102.512329 
	C99.563347,109.193451 105.209572,120.510956 101.580544,133.902451 
	C99.192749,142.713638 93.016701,147.911499 84.847870,151.034119 
	C73.213417,155.481506 61.052193,155.698608 48.905865,154.629272 
	C41.485706,153.975998 34.130039,152.410110 26.813337,150.920471 
	C25.424240,150.637634 23.562321,148.958084 23.278534,147.631943 
	C22.244627,142.800476 21.787210,137.845673 21.077841,132.685242 
	C35.271347,136.742584 49.417019,139.004532 63.901943,137.868103 
	C67.305618,137.601044 70.874664,136.762878 73.927834,135.281189 
	C79.766006,132.447937 80.594009,125.875053 75.533478,121.821556 
	C72.365913,119.284340 68.451591,117.571312 64.686668,115.908966 
	C54.827011,111.555557 44.701145,107.774590 34.997578,103.107979 
	C27.513187,99.508598 22.134367,93.608414 20.982264,84.900558 
	C19.116245,70.796738 24.720436,61.019627 38.452881,57.001972 
	C46.467739,54.657089 55.109287,54.454250 63.941967,53.288269 
z"/>
<path fill="#ABC6DE" opacity="1.000000" stroke="none" 
	d="
M172.412476,92.627838 
	C186.000244,93.785461 198.880219,95.954895 210.826813,101.918594 
	C212.899277,102.953148 214.952637,104.138672 216.756516,105.578163 
	C223.133606,110.667130 223.921432,118.504395 217.555038,124.691536 
	C211.910522,130.177109 205.490524,135.230515 198.608627,139.010498 
	C175.229111,151.852097 149.622726,158.451767 123.744064,163.942535 
	C100.197472,168.938492 76.402618,172.262955 52.311115,173.093719 
	C41.683495,173.460205 31.050791,173.702789 20.418386,173.883453 
	C18.671534,173.913147 16.914276,173.330872 13.977744,172.829117 
	C25.088799,171.477005 35.065063,170.879608 44.778904,168.956604 
	C67.191299,164.519684 89.621353,160.014999 111.766479,154.435394 
	C129.029587,150.085831 145.558304,143.312057 160.448685,133.230072 
	C163.850967,130.926453 167.261505,128.289246 169.791000,125.108040 
	C177.001144,116.040138 175.220520,108.183228 165.081284,102.526985 
	C155.041565,96.926262 143.956635,94.769753 132.775589,93.045158 
	C128.548401,92.393143 124.269775,92.074585 120.014595,91.604027 
	C120.029953,91.191147 120.045311,90.778259 120.060677,90.365379 
	C137.364395,91.076843 154.668106,91.788315 172.412476,92.627838 
z"/>
</svg>